<?xml version="1.0" standalone="no"?>
<!DOCTYPE svg PUBLIC "-//W3C//DTD SVG 20010904//EN"
 "http://www.w3.org/TR/2001/REC-SVG-20010904/DTD/svg10.dtd">
<svg version="1.0" xmlns="http://www.w3.org/2000/svg"
 width="512.000000pt" height="512.000000pt" viewBox="0 0 512.000000 512.000000"
 preserveAspectRatio="xMidYMid meet">
<metadata>
Created by potrace 1.16, written by Peter Selinger 2001-2019
</metadata>
<g transform="translate(0.000000,512.000000) scale(0.100000,-0.100000)"
fill="#000000" stroke="none">
<path d="M2491 4210 c-53 -11 -116 -48 -158 -92 -26 -27 -1471 -2516 -1543
-2658 -31 -60 -38 -159 -16 -233 21 -72 95 -155 168 -188 l53 -24 1565 0 1565
0 53 24 c73 33 147 116 168 188 22 74 15 173 -16 233 -13 25 -358 626 -767
1335 -441 763 -760 1306 -781 1328 -70 73 -188 108 -291 87z m169 -965 c39
-20 77 -69 90 -113 14 -52 13 -864 -1 -917 -21 -74 -106 -135 -189 -135 -83 0
-168 61 -189 135 -14 53 -15 865 -1 917 12 41 50 92 84 110 55 30 151 31 206
3z m-32 -1441 c78 -32 125 -99 125 -179 1 -82 -42 -149 -116 -180 -66 -28
-159 -13 -210 33 -56 50 -78 163 -44 227 48 93 156 137 245 99z"/>
</g>
</svg>
